<svg width="20" height="25" viewBox="0 0 52 54" fill="none" xmlns="http://www.w3.org/2000/svg">
<line x1="8.48507" y1="0.878732" x2="21.4851" y2="52.8787" stroke="white"/>
<line y1="-0.5" x2="53.6004" y2="-0.5" transform="matrix(0.242536 -0.970142 -0.970142 -0.242536 38 53)" stroke="white"/>
<line y1="-0.5" x2="31.554" y2="-0.5" transform="matrix(0.186563 -0.982443 -0.949875 -0.312629 23 53)" stroke="white"/>
<line y1="-0.5" x2="31.554" y2="-0.5" transform="matrix(0.186563 0.982443 -0.949875 0.312629 30 22)" stroke="white"/>
<line x1="0.485071" y1="0.878732" x2="13.4851" y2="52.8787" stroke="white"/>
<line y1="-0.5" x2="53.6004" y2="-0.5" transform="matrix(0.242536 -0.970142 -0.970142 -0.242536 30 53)" stroke="white"/>
<line y1="-0.5" x2="31.554" y2="-0.5" transform="matrix(0.186563 -0.982443 -0.949875 -0.312629 15 53)" stroke="white"/>
<line y1="-0.5" x2="31.554" y2="-0.5" transform="matrix(0.186563 0.982443 -0.949875 0.312629 22 22)" stroke="white"/>
</svg>
