<svg width="101" height="102" viewBox="0 0 101 102" fill="none" xmlns="http://www.w3.org/2000/svg">
<line y1="-0.5" x2="103.198" y2="-0.5" transform="matrix(0.247004 0.969015 -0.971231 0.238138 15.686 1)" stroke="white"/>
<line y1="-0.5" x2="103.198" y2="-0.5" transform="matrix(0.247004 -0.969015 -0.971231 -0.238138 74.5098 101)" stroke="white"/>
<line y1="-0.5" x2="60.7226" y2="-0.5" transform="matrix(0.19009 -0.981767 -0.951648 -0.307189 45.0981 101)" stroke="white"/>
<line y1="-0.5" x2="60.7226" y2="-0.5" transform="matrix(0.19009 0.981767 -0.951648 0.307189 58.8237 41.3846)" stroke="white"/>
<line y1="-0.5" x2="103.198" y2="-0.5" transform="matrix(0.247004 0.969015 -0.971231 0.238138 0 1)" stroke="white"/>
<line y1="-0.5" x2="103.198" y2="-0.5" transform="matrix(0.247004 -0.969015 -0.971231 -0.238138 58.8237 101)" stroke="white"/>
<line y1="-0.5" x2="60.7226" y2="-0.5" transform="matrix(0.19009 -0.981767 -0.951648 -0.307189 29.4116 101)" stroke="white"/>
<line y1="-0.5" x2="60.7226" y2="-0.5" transform="matrix(0.19009 0.981767 -0.951648 0.307189 43.1372 41.3846)" stroke="white"/>
</svg>
